<?xml version="1.0" encoding="utf-8"?>
<!-- Generator: Adobe Illustrator 26.5.0, SVG Export Plug-In . SVG Version: 6.00 Build 0)  -->
<svg version="1.1" id="Layer_1" xmlns="http://www.w3.org/2000/svg" xmlns:xlink="http://www.w3.org/1999/xlink" x="0px" y="0px"
	 viewBox="0 0 1921 497.7" style="enable-background:new 0 0 1921 497.7;" xml:space="preserve">
<style type="text/css">
	.st0{fill:none;}
	.st1{fill:url(#SVGID_1_);}
	.st2{fill:url(#SVGID_00000082344982681139180160000017770483066578228919_);}
	.st3{fill:#FFFFFF;}
	.st4{fill:url(#SVGID_00000012452450734953342880000011586064739819640246_);}
	.st5{fill:url(#SVGID_00000101102104957660567400000017734820919020497804_);}
	.st6{fill:url(#SVGID_00000108996840882020374760000013608045465733939634_);}
	.st7{fill:url(#SVGID_00000005953430997950900800000003277246911865069758_);}
	.st8{fill:url(#SVGID_00000001634904122613934130000001637178613549722519_);}
	.st9{fill:url(#SVGID_00000004518931803797940280000017581479324482481024_);}
	.st10{fill:#0073A1;}
	.st11{fill:#ED3E75;}
	.st12{fill:#F69348;}
</style>
<g>
	<g>
		<rect class="st0" width="1921" height="497.7"/>
	</g>
	<g>
		
			<linearGradient id="SVGID_1_" gradientUnits="userSpaceOnUse" x1="111.2782" y1="239.7956" x2="528.4781" y2="239.7956" gradientTransform="matrix(1 0 0 -1 0 500)">
			<stop  offset="0" style="stop-color:#3EABB5;stop-opacity:0.95"/>
			<stop  offset="0.2297" style="stop-color:#63C2D0"/>
			<stop  offset="0.5054" style="stop-color:#63C2D0"/>
			<stop  offset="0.8871" style="stop-color:#006D9F"/>
		</linearGradient>
		<path class="st1" d="M370.1,299.1c-41.8-14.3-60.9-31.1-83.9-50.9c-23-19.7-30.9-33.9-44.1-50.2c-13.2-16.3-28.2-47.3-51.1-70.3
			c-23-23-65.2-25.9-95.8-9.5s-34.5,49.9-34.5,49.9c40.8-6.3,57.6,25.5,69.8,50.2c12.2,24.8,13.9,51.6,16.3,69.2
			c8.4,59.8,47,94.6,91.6,105.2c15.2,4.2,56.8,15.7,68,19.9c0,0-24-12.3-30.2-16.7c0,0-0.1,0-0.2,0c4.2-0.2,12.3-1.1,16.5-1.7
			c16.6,3.4,17.3,5.1,27.3,8.9c0,0-16-11.7-16.3-11.7c19.5-5.3,38-15.1,53.5-29.4c0.8-0.8,1.5-1.5,2.3-2.2
			c14.9-13.6,29.1-21.1,34.6-23.9c9.6-4.9,39-19.2,84-23C425.6,310.8,386,304.6,370.1,299.1z"/>
		<g>
			
				<linearGradient id="SVGID_00000054237724613103628130000016836360673853685410_" gradientUnits="userSpaceOnUse" x1="357.518" y1="194.4383" x2="633.9407" y2="63.4011" gradientTransform="matrix(0.9956 -9.340826e-02 -9.340826e-02 -0.9956 43.0183 540.8253)">
				<stop  offset="0" style="stop-color:#63C2D0"/>
				<stop  offset="0.5" style="stop-color:#006D9F"/>
				<stop  offset="1" style="stop-color:#23536D"/>
			</linearGradient>
			<path style="fill:url(#SVGID_00000054237724613103628130000016836360673853685410_);" d="M357,362.1c0,0,25.9-16.9,61.2-11.2
				c30.2,4.9,63,33.5,106.1,42c2.2,0.6,4.4,1,6.7,1.4c32.1,5.3,71-8.2,68.9-30.9C593.9,299.7,429.4,291.1,357,362.1z"/>
		</g>
		<path class="st3" d="M116,141.6c0,3.3-2.7,6-6.1,6c-3.3,0-5.9-2.8-5.9-6c0.1-3.4,2.7-6,6.1-6C113.3,135.5,116,138.3,116,141.6z"/>
		
			<linearGradient id="SVGID_00000174570421995756556690000001433524359799062925_" gradientUnits="userSpaceOnUse" x1="169.2294" y1="246.172" x2="512.9691" y2="246.172" gradientTransform="matrix(1.0055 -1.853732e-05 1.854004e-05 -1 -0.7508 499.9985)">
			<stop  offset="0" style="stop-color:#C6135D"/>
			<stop  offset="0.4459" style="stop-color:#E95178"/>
			<stop  offset="1" style="stop-color:#C6135D"/>
		</linearGradient>
		<path style="fill:url(#SVGID_00000174570421995756556690000001433524359799062925_);" d="M511.9,125.2
			c-31.6,4.5-60.4,9.5-86.7,15.1c-285,59.8-273.4,182.1-237,220c100.8,105,303.6-195,326.6-232C515.7,126.7,514,124.9,511.9,125.2z"
			/>
		
			<linearGradient id="SVGID_00000134231202112020565410000003635654869074271381_" gradientUnits="userSpaceOnUse" x1="169.4529" y1="281.0754" x2="448.9554" y2="281.0754" gradientTransform="matrix(1.0191 -9.146359e-03 9.146359e-03 -0.9917 -11.2008 502.433)">
			<stop  offset="0" style="stop-color:#FABC43"/>
			<stop  offset="1" style="stop-color:#F2933F"/>
		</linearGradient>
		<path style="fill:url(#SVGID_00000134231202112020565410000003635654869074271381_);" d="M446.5,61c-29.5,12.9-56,25.5-79.9,37.9
			c-259.7,134.4-215.3,249.6-164.3,273c142.3,65.3,236.8-267.4,248-308.8C450.7,61.3,448.5,60.1,446.5,61z"/>
		
			<linearGradient id="SVGID_00000020392094886331097910000013525834166635536526_" gradientUnits="userSpaceOnUse" x1="160.6807" y1="270.75" x2="450.191" y2="270.75" gradientTransform="matrix(1 0 0 -1 0 500)">
			<stop  offset="0" style="stop-color:#E40046"/>
			<stop  offset="1" style="stop-color:#E95283"/>
		</linearGradient>
		<path style="fill:url(#SVGID_00000020392094886331097910000013525834166635536526_);" d="M163.2,318.5
			c1-49.6,50.1-117,245.4-131.9c2.8-6.7,6-15.6,9.3-24.3c0.6-1.5,1.1-2.9,1.6-4.4c2.6-6.8,4.8-13,6.5-17.9
			C215.6,183.3,162.2,265.8,163.2,318.5z"/>
		
			<linearGradient id="SVGID_00000013166825798117961140000008686504376436662969_" gradientUnits="userSpaceOnUse" x1="171.7799" y1="216.2716" x2="546.6201" y2="216.2716" gradientTransform="matrix(1 0 0 -1 0 500)">
			<stop  offset="0" style="stop-color:#23536D"/>
			<stop  offset="0.9919" style="stop-color:#3EABB5"/>
		</linearGradient>
		<path style="fill:url(#SVGID_00000013166825798117961140000008686504376436662969_);" d="M544,185.4c-22.2-0.8-49.2-1.2-69-1.1
			C418.6,255,318,379.9,237.7,383.1c-4.1,0.2-8.2-0.3-12.1-0.9c-0.1,0-0.2,0-0.3,0s-0.1,0-0.2,0c-14.8-2.3-28.7-9-41.5-21.1
			c-10.5-9.9-15.3-19-9-10.1c84.8,119.8,341.1-131.3,371.5-162.2C547.4,187.5,546.1,185.5,544,185.4z"/>
		
			<linearGradient id="SVGID_00000002363169932266406650000006667464840777889694_" gradientUnits="userSpaceOnUse" x1="163" y1="216.2" x2="476.1" y2="216.2" gradientTransform="matrix(1 0 0 -1 0 500)">
			<stop  offset="0" style="stop-color:#006D9F"/>
			<stop  offset="1" style="stop-color:#3EABB5"/>
		</linearGradient>
		<path style="fill:url(#SVGID_00000002363169932266406650000006667464840777889694_);" d="M476.1,184.4c-8.8,0-17.5,0.2-25.9,0.4
			c-227.4,5.8-286.1,79-287.2,130.3c0.4,19.7,8.7,36.1,19.1,46.1c12.6,12.1,26.4,18.7,41,21.1c0.1,0,0.1,0,0.2,0c0.1,0,0.2,0,0.3,0
			c3.9,0.5,7.9,0.8,11.9,0.9C319.2,383.1,423.5,256.6,476.1,184.4z"/>
		
			<linearGradient id="SVGID_00000175303192360571887710000017295863078948878755_" gradientUnits="userSpaceOnUse" x1="163" y1="215.05" x2="408.5" y2="215.05" gradientTransform="matrix(1 0 0 -1 0 500)">
			<stop  offset="0" style="stop-color:#006D9F"/>
			<stop  offset="1" style="stop-color:#63C2D0"/>
		</linearGradient>
		<path style="fill:url(#SVGID_00000175303192360571887710000017295863078948878755_);" d="M408.5,186.7
			C216.2,200.9,164,267.5,163,315c0.4,19.7,8.9,36.1,19.6,46.1c5.4,5,10.9,9.1,16.7,12.3c10.1,5.1,19.9,8.1,29.5,9.3
			c2.8,0.3,5.7,0.4,8.6,0.5c6.5,0,13.1-0.7,19.7-2.1C323,365.2,375.7,267.7,408.5,186.7z"/>
		<path class="st10" d="M467.2,413.4h-29v5.3c0,10.1,8.2,18.2,18.2,18.2h29v-5.3C485.5,421.6,477.3,413.4,467.2,413.4z"/>
		<path class="st11" d="M412.1,413.4h-29v5.3c0,10.1,8.2,18.2,18.2,18.2h29v-5.3C430.3,421.6,422.1,413.4,412.1,413.4z"/>
		<path class="st12" d="M356.9,413.4h-29v5.3c0,10.1,8.2,18.2,18.2,18.2h29v-5.3C375.1,421.6,367,413.4,356.9,413.4z"/>
	</g>
	<rect x="750" y="88.8" class="st12" width="8" height="320"/>
	<g>
		<path class="st3" d="M956.4,310.9c-10.9-6.1-19.6-14.6-26-25.5s-9.6-23.2-9.6-36.9c0-13.6,3.2-25.8,9.6-36.7
			c6.4-10.9,15.1-19.4,26-25.5s22.9-9.2,36-9.2c13.2,0,25.2,3.1,36.1,9.2c10.9,6.1,19.5,14.6,25.8,25.5s9.5,23.1,9.5,36.7
			c0,13.7-3.2,26-9.5,36.9s-15,19.4-25.9,25.5s-22.9,9.2-36,9.2C979.3,320.1,967.3,317,956.4,310.9z M1014.6,289.4
			c6.4-3.8,11.4-9.2,15-16.3c3.6-7.1,5.4-15.3,5.4-24.6c0-9.3-1.8-17.5-5.4-24.5s-8.6-12.4-15-16.1c-6.4-3.7-13.8-5.6-22.2-5.6
			s-15.8,1.9-22.3,5.6c-6.5,3.7-11.5,9.1-15.1,16.1s-5.4,15.2-5.4,24.5c0,9.3,1.8,17.5,5.4,24.6c3.6,7.1,8.6,12.5,15.1,16.3
			s13.9,5.7,22.3,5.7C1000.8,295.1,1008.2,293.2,1014.6,289.4z"/>
		<path class="st3" d="M1130.8,292.9l28-85h29.8l-41,110.8h-34l-40.8-110.8h30L1130.8,292.9z"/>
		<path class="st3" d="M1306.6,271.7h-81c0.7,8,3.5,14.3,8.4,18.8s11,6.8,18.2,6.8c10.4,0,17.8-4.5,22.2-13.4h30.2
			c-3.2,10.7-9.3,19.4-18.4,26.3s-20.2,10.3-33.4,10.3c-10.7,0-20.2-2.4-28.7-7.1s-15.1-11.4-19.8-20.1c-4.7-8.7-7.1-18.7-7.1-30
			c0-11.5,2.3-21.5,7-30.2s11.2-15.3,19.6-20s18.1-7,29-7c10.5,0,20,2.3,28.3,6.8s14.8,11,19.4,19.3s6.9,17.9,6.9,28.7
			C1307.4,264.9,1307.1,268.5,1306.6,271.7z M1278.4,252.9c-0.1-7.2-2.7-13-7.8-17.3c-5.1-4.3-11.3-6.5-18.6-6.5
			c-6.9,0-12.8,2.1-17.5,6.3s-7.6,10-8.7,17.5H1278.4z"/>
		<path class="st3" d="M1369.9,211.3c5.8-3.3,12.4-5,19.9-5v29.4h-7.4c-8.8,0-15.4,2.1-19.9,6.2c-4.5,4.1-6.7,11.3-6.7,21.6v55.2
			h-28V207.9h28v17.2C1359.4,219.2,1364.1,214.6,1369.9,211.3z"/>
		<path class="st3" d="M1454.8,292.9l28-85h29.8l-41,110.8h-34l-40.8-110.8h30L1454.8,292.9z"/>
		<path class="st3" d="M1530.3,190c-3.3-3.1-4.9-7-4.9-11.7s1.6-8.6,4.9-11.7c3.3-3.1,7.4-4.7,12.3-4.7s9,1.6,12.3,4.7
			c3.3,3.1,4.9,7,4.9,11.7s-1.6,8.6-4.9,11.7c-3.3,3.1-7.4,4.7-12.3,4.7C1537.6,194.7,1533.5,193.1,1530.3,190z M1556.4,207.9v110.8
			h-28V207.9H1556.4z"/>
		<path class="st3" d="M1686.2,271.7h-81c0.7,8,3.5,14.3,8.4,18.8s11,6.8,18.2,6.8c10.4,0,17.8-4.5,22.2-13.4h30.2
			c-3.2,10.7-9.3,19.4-18.4,26.3s-20.2,10.3-33.4,10.3c-10.7,0-20.2-2.4-28.7-7.1s-15.1-11.4-19.8-20.1c-4.7-8.7-7.1-18.7-7.1-30
			c0-11.5,2.3-21.5,7-30.2s11.2-15.3,19.6-20s18.1-7,29-7c10.5,0,20,2.3,28.3,6.8s14.8,11,19.4,19.3s6.9,17.9,6.9,28.7
			C1687,264.9,1686.7,268.5,1686.2,271.7z M1658,252.9c-0.1-7.2-2.7-13-7.8-17.3c-5.1-4.3-11.3-6.5-18.6-6.5
			c-6.9,0-12.8,2.1-17.5,6.3s-7.6,10-8.7,17.5H1658z"/>
		<path class="st3" d="M1861,207.9l-32.4,110.8h-30.2l-20.2-77.4l-20.2,77.4h-30.4L1695,207.9h28.4l19.6,84.4l21.2-84.4h29.6
			l20.8,84.2l19.6-84.2L1861,207.9L1861,207.9z"/>
	</g>
</g>
</svg>
